<svg width="20" height="20" viewBox="0 0 20 20" fill="none" xmlns="http://www.w3.org/2000/svg">
<path d="M13.75 4.99967V14.583C13.75 16.4247 12.2584 17.9163 10.4167 17.9163C8.57504 17.9163 7.08337 16.4247 7.08337 14.583V4.16634C7.08337 3.01634 8.01671 2.08301 9.16671 2.08301C10.3167 2.08301 11.25 3.01634 11.25 4.16634V12.9163C11.25 13.3747 10.875 13.7497 10.4167 13.7497C9.95837 13.7497 9.58337 13.3747 9.58337 12.9163V4.99967H8.33337V12.9163C8.33337 14.0663 9.26671 14.9997 10.4167 14.9997C11.5667 14.9997 12.5 14.0663 12.5 12.9163V4.16634C12.5 2.32467 11.0084 0.833008 9.16671 0.833008C7.32504 0.833008 5.83337 2.32467 5.83337 4.16634V14.583C5.83337 17.1163 7.88337 19.1663 10.4167 19.1663C12.95 19.1663 15 17.1163 15 14.583V4.99967H13.75Z" fill="#94979C"/>
</svg>
