<svg width="20" height="20" viewBox="0 0 20 20" fill="none" xmlns="http://www.w3.org/2000/svg">
<path d="M13.1871 11.8289H12.4719L12.2184 11.5845C13.1056 10.5525 13.6397 9.21266 13.6397 7.75516C13.6397 4.50521 11.0054 1.87085 7.75541 1.87085C4.50546 1.87085 1.87109 4.50521 1.87109 7.75516C1.87109 11.0051 4.50546 13.6395 7.75541 13.6395C9.21291 13.6395 10.5527 13.1054 11.5847 12.2182L11.8292 12.4717V13.1868L16.3556 17.7042L17.7044 16.3553L13.1871 11.8289ZM7.75541 11.8289C5.50126 11.8289 3.68165 10.0093 3.68165 7.75516C3.68165 5.50102 5.50126 3.68141 7.75541 3.68141C10.0096 3.68141 11.8292 5.50102 11.8292 7.75516C11.8292 10.0093 10.0096 11.8289 7.75541 11.8289Z" fill="#94979C"/>
</svg>
